<?xml version="1.0" standalone="no"?>
<!DOCTYPE svg PUBLIC "-//W3C//DTD SVG 20010904//EN"
 "http://www.w3.org/TR/2001/REC-SVG-20010904/DTD/svg10.dtd">
<svg version="1.0" xmlns="http://www.w3.org/2000/svg"
 width="128.000000pt" height="35.000000pt" viewBox="0 0 128.000000 35.000000"
 preserveAspectRatio="xMidYMid meet">

<g transform="translate(0.000000,35.000000) scale(0.100000,-0.100000)"
fill="#000000" stroke="none">
<path d="M0 174 c0 -157 2 -175 16 -170 9 3 20 6 25 6 5 0 9 41 9 92 0 50 3
88 6 85 4 -3 19 -41 34 -84 24 -68 31 -78 54 -81 l26 -3 0 165 0 166 -25 0
c-25 0 -25 0 -26 -97 l0 -98 -20 55 c-47 135 -49 140 -75 140 l-24 0 0 -176z"/>
<path d="M230 189 l0 -162 53 7 c28 3 62 6 75 6 17 0 22 6 22 26 0 24 -2 25
-47 23 l-48 -3 -3 42 -3 42 35 0 c32 0 36 3 36 25 0 22 -4 25 -35 25 -34 0
-35 1 -35 40 l0 40 50 0 c47 0 50 2 50 25 0 24 -2 25 -75 25 l-75 0 0 -161z"/>
<path d="M410 325 c0 -21 5 -25 30 -25 l30 0 0 -125 0 -125 25 0 25 0 0 125 0
125 30 0 c25 0 30 4 30 25 0 25 -1 25 -85 25 -84 0 -85 0 -85 -25z"/>
<path d="M620 200 c0 -143 1 -150 20 -150 18 0 20 7 20 60 l0 60 40 0 c36 0
40 3 40 24 0 21 -5 25 -37 28 -36 3 -38 5 -38 38 0 35 0 35 48 38 42 3 47 5
47 28 0 23 -2 24 -70 24 l-70 0 0 -150z"/>
<path d="M802 198 l3 -153 68 -3 c66 -3 67 -3 67 23 0 23 -3 25 -45 25 l-45 0
0 130 0 130 -25 0 -26 0 3 -152z"/>
<path d="M990 190 l0 -160 25 0 25 0 0 160 0 160 -25 0 -25 0 0 -160z"/>
<path d="M1111 298 c45 -111 45 -110 10 -188 -33 -74 -33 -90 0 -90 13 0 24
12 35 40 9 22 20 40 24 40 4 0 15 -20 24 -44 13 -34 23 -45 44 -49 15 -3 28
-5 28 -4 1 1 -14 42 -33 92 l-34 90 35 82 35 83 -29 0 c-24 0 -31 -6 -46 -45
-19 -50 -26 -49 -44 8 -10 31 -16 37 -41 37 l-29 0 21 -52z"/>
</g>
</svg>
